:version 1.10
:name ASF
:units
  mass 1
  length 1
  angle deg
:documentation
  ASF file generated by Kaydara
:root
  axis xyz
  order  tx ty tz rx ry rz
  position 0 0 0
  orientation 0 0 0
:bonedata
  begin
    id 1
    name RightUpLegDummy
    direction -1 2.30186e-007 8.31532e-007
    length 4.46685
    axis 0 0 0 xyz
  end
  begin
    id 2
    name RightUpLeg
    direction -2.30187e-007 -1 1.24343e-010
    length 16.4045
    axis -3.49089 -0.000906625 0.000286804 xyz
    dof rx ry rz
  end
  begin
    id 3
    name RightLeg
    direction -2.30181e-007 -1 -4.17157e-009
    length 17.5097
    axis 3.68512 0.0193738 -0.131023 xyz
    dof rx ry rz
  end
  begin
    id 4
    name RightFoot
    direction 8.31421e-007 -4.51202e-011 1
    length 6.49508
    axis 4.81691e-005 -0.120479 -0.188788 xyz
    dof rx ry rz
  end
  begin
    id 5
    name RightToes
    direction 0.00124746 -0.014064 0.9999
    length 3.85082
    axis 0.000481921 0.542163 -0.142578 xyz
    dof rx ry rz
  end
  begin
    id 6
    name SpineDummy
    direction 0.0717043 0.9409 -0.331007
    length 10.0032
    axis 0 0 0 xyz
  end
  begin
    id 7
    name Spine
    direction 2.30186e-007 1 4.58806e-011
    length 9.84055
    axis -0.001389 0.000121418 2.40972e-006 xyz
    dof rx ry rz
  end
  begin
    id 8
    name Spine1
    direction 0 0 0
    length 0
    axis -0.001389 0.000121451 1.30017e-006 xyz
    dof rx ry rz
  end
  begin
    id 9
    name HEadDummy
    direction -0.00347485 0.950688 -0.310128
    length 8.00997
    axis -0.001389 0.000121451 1.30017e-006 xyz
  end
  begin
    id 10
    name HEad
    direction -0.0222688 0.980941 0.193023
    length 5.12695
    axis -0.001389 0.000121451 1.30017e-006 xyz
    dof rx ry rz
  end
  begin
    id 11
    name LeftShoulder1Dummy
    direction 0.988871 0.146793 -0.0242004
    length 3.5792
    axis -0.001389 0.000121451 1.30017e-006 xyz
  end
  begin
    id 12
    name LeftShoulder1
    direction 0.993832 0.108932 0.020779
    length 4.16823
    axis -0.001389 0.000121451 1.30017e-006 xyz
    dof rx ry rz
  end
  begin
    id 13
    name LeftArm
    direction 1 3.44807e-006 -8.31404e-007
    length 9.91437
    axis -23.1894 0.134784 0.967509 xyz
    dof rx ry rz
  end
  begin
    id 14
    name LeftForeArm
    direction 1 3.44842e-006 -8.31581e-007
    length 9.08575
    axis -9.91835 -0.06569 -0.177793 xyz
    dof rx ry rz
  end
  begin
    id 15
    name LeftHand
    direction 0.992938 -0.0411636 0.11126
    length 5.32135
    axis -0.00960232 -0.00340091 0.185173 xyz
    dof rx ry rz
  end
  begin
    id 16
    name RightShoulderDummy
    direction -0.988871 0.146793 -0.0241962
    length 3.5792
    axis -0.001389 0.000121451 1.30017e-006 xyz
  end
  begin
    id 17
    name RightShoulder
    direction -0.993832 0.108933 0.0207785
    length 4.16823
    axis 0.215806 0.000203643 -0.0068026 xyz
    dof rx ry rz
  end
  begin
    id 18
    name RightArm
    direction -1 3.90912e-006 8.31284e-007
    length 9.91437
    axis -23.2009 -0.134239 -0.964101 xyz
    dof rx ry rz
  end
  begin
    id 19
    name RightForeArm
    direction -1 3.90882e-006 8.31502e-007
    length 9.08575
    axis -9.92322 0.0658061 0.178867 xyz
    dof rx ry rz
  end
  begin
    id 20
    name RightHand
    direction -0.992843 -0.0414603 0.112003
    length 5.28593
    axis -0.00960638 0.00330671 -0.185228 xyz
    dof rx ry rz
  end
  begin
    id 21
    name LeftUpLegDummy
    direction 1 -2.30186e-007 -8.31532e-007
    length 4.46685
    axis 0 0 0 xyz
  end
  begin
    id 22
    name LeftUpLeg
    direction -2.30187e-007 -1 6.00931e-010
    length 16.4045
    axis -3.48766 0.00143442 -0.000524262 xyz
    dof rx ry rz
  end
  begin
    id 23
    name LeftLeg
    direction -2.30187e-007 -1 1.6669e-009
    length 17.5097
    axis 3.68178 -0.00654042 -0.000285133 xyz
    dof rx ry rz
  end
  begin
    id 24
    name LeftFoot
    direction 8.31532e-007 -4.54478e-011 1
    length 6.49508
    axis 1.87233e-006 4.66016e-005 -8.6538e-006 xyz
    dof rx ry rz
  end
  begin
    id 25
    name LeftToes
    direction 0.00818058 -0.00485161 0.999955
    length 3.85048
    axis 1.06247e-005 4.65869e-005 -8.65513e-006 xyz
    dof rx ry rz
  end
:hierarchy
  begin
    root RightUpLegDummy SpineDummy LeftUpLegDummy
    RightUpLegDummy RightUpLeg
    RightUpLeg RightLeg
    RightLeg RightFoot
    RightFoot RightToes
    SpineDummy Spine
    Spine Spine1
    Spine1 HEadDummy LeftShoulder1Dummy RightShoulderDummy
    HEadDummy HEad
    LeftShoulder1Dummy LeftShoulder1
    LeftShoulder1 LeftArm
    LeftArm LeftForeArm
    LeftForeArm LeftHand
    RightShoulderDummy RightShoulder
    RightShoulder RightArm
    RightArm RightForeArm
    RightForeArm RightHand
    LeftUpLegDummy LeftUpLeg
    LeftUpLeg LeftLeg
    LeftLeg LeftFoot
    LeftFoot LeftToes
  end

:SAMPLES-PER-SECOND 30
:FULLY-SPECIFIED
:DEGREES
16
root  -58.962 33.7328 8.8556 -0.21569 45.2181 1.3947
RightUpLeg  7.22274 -16.3915 -4.13631
RightLeg  10.9522 0.735844 0.0951373
RightFoot  -6.08633 -0.0186554 -0.0164682
RightToes  -23.9709 -0.105183 -0.210972
Spine  3.76689 -3.45271 0.850035
Spine1  7.15549 -6.93656 1.65424
HEad  16.3294 35.6025 -2.88575
LeftShoulder1  0 -2.42657e-020 -4.95415e-022
LeftArm  -47.2728 8.14855 -68.2761
LeftForeArm  55.8778 -15.0639 -2.67999
LeftHand  0.256346 -10.9142 -3.05471
RightShoulder  0 2.42657e-020 1.07489e-018
RightArm  -74.7998 -25.6787 81.7612
RightForeArm  -25.1204 64.3784 21.4604
RightHand  1.73639 11.4412 17.584
LeftUpLeg  -8.7939 13.8107 4.83334
LeftLeg  6.19374 -13.1682 -0.573296
LeftFoot  15.5749 0.49506 -3.61876
LeftToes  -18.6364 1.71452e-006 7.46813e-008
17
root  -58.8693 33.7195 8.85256 -0.0299771 45.5687 1.62359
RightUpLeg  7.24123 -16.6096 -4.44968
RightLeg  11.2215 0.633302 0.0850578
RightFoot  -6.26454 -0.0194633 -0.000713433
RightToes  -24.0299 -0.106524 -0.212271
Spine  3.78729 -3.48532 0.776775
Spine1  7.17849 -7.00668 1.54897
HEad  16.4228 35.9094 -3.08
LeftShoulder1  0 -2.42657e-020 -4.95415e-022
LeftArm  -47.1316 8.12778 -68.8205
LeftForeArm  56.3812 -14.8974 -2.64759
LeftHand  0.237456 -10.8511 -2.87151
RightShoulder  0 2.42657e-020 1.07489e-018
RightArm  -74.8895 -25.9118 82.279
RightForeArm  -25.3337 64.4325 21.5136
RightHand  1.79076 11.6898 17.7405
LeftUpLeg  -8.93613 13.9528 4.52934
LeftLeg  6.48453 -13.6129 -0.660884
LeftFoot  15.3322 0.497602 -3.68664
LeftToes  -18.4613 1.71452e-006 7.46813e-008
18
root  -58.7869 33.7103 8.85238 0.16013 45.8929 1.81939
RightUpLeg  7.22621 -16.8024 -4.70423
RightLeg  11.4776 0.521221 0.0725701
RightFoot  -6.42425 -0.0203925 0.0141846
RightToes  -24.146 -0.10787 -0.213355
Spine  3.78236 -3.51398 0.72662
Spine1  7.15922 -7.06503 1.47088
HEad  16.6558 36.5131 -3.29475
LeftShoulder1  0 -2.42657e-020 -4.95415e-022
LeftArm  -46.776 8.16757 -69.2264
LeftForeArm  56.4885 -14.8281 -2.63432
LeftHand  0.239964 -10.7876 -2.91288
RightShoulder  0 2.42657e-020 1.07489e-018
RightArm  -75.0904 -26.0595 82.6446
RightForeArm  -25.3355 64.4978 21.58
RightHand  1.81868 11.6276 18.1006
LeftUpLeg  -8.99576 13.8413 4.27003
LeftLeg  6.55562 -13.7967 -0.686625
LeftFoot  15.2197 0.495865 -3.71022
LeftToes  -18.3498 1.71452e-006 7.46813e-008
19
root  -58.7081 33.7045 8.86182 0.383035 46.2383 2.06177
RightUpLeg  7.33128 -17.1295 -5.022
RightLeg  11.5446 0.523769 0.0735344
RightFoot  -6.47899 -0.0204037 0.0170638
RightToes  -24.345 -0.109236 -0.214394
Spine  3.7759 -3.53687 0.670151
Spine1  7.14114 -7.11099 1.37723
HEad  17.2048 37.2281 -3.49337
LeftShoulder1  0 -2.42657e-020 -4.95415e-022
LeftArm  -46.4035 8.18519 -69.4573
LeftForeArm  56.7728 -14.7688 -2.62258
LeftHand  0.239399 -10.8114 -2.92499
RightShoulder  0 2.42657e-020 1.07489e-018
RightArm  -75.2125 -26.0018 82.8156
RightForeArm  -25.494 64.4742 21.5548
RightHand  1.86674 11.5237 18.724
LeftUpLeg  -9.03171 13.6244 3.99161
LeftLeg  6.60057 -13.8671 -0.700864
LeftFoot  15.1119 0.493295 -3.702
LeftToes  -18.1279 1.71452e-006 7.46813e-008
20
root  -58.6445 33.7029 8.86798 0.529919 46.5386 2.21907
RightUpLeg  7.44852 -17.2239 -5.18798
RightLeg  11.5169 0.296405 0.0420037
RightFoot  -6.4237 -0.0215649 0.0435238
RightToes  -24.5233 -0.11064 -0.215557
Spine  3.77237 -3.52305 0.634231
Spine1  7.13402 -7.08402 1.31533
HEad  17.6726 38.2036 -3.83128
LeftShoulder1  0 -2.42657e-020 -4.95415e-022
LeftArm  -45.9344 8.09361 -69.5577
LeftForeArm  57.0804 -14.691 -2.60732
LeftHand  0.236697 -10.8696 -2.86729
RightShoulder  0 2.42657e-020 1.07489e-018
RightArm  -75.288 -26.0203 82.8419
RightForeArm  -25.2579 64.4725 21.5548
RightHand  1.8123 11.0508 18.9527
LeftUpLeg  -9.02159 13.4446 3.79338
LeftLeg  6.55583 -13.9544 -0.694362
LeftFoot  15.09 0.492957 -3.72051
LeftToes  -18.1105 1.71452e-006 7.46813e-008
21
root  -58.583 33.7026 8.87424 0.687596 46.8867 2.39713
RightUpLeg  7.62826 -17.5243 -5.44402
RightLeg  11.4284 0.28784 0.0403832
RightFoot  -6.30452 -0.021098 0.0460561
RightToes  -25.1673 -0.112097 -0.217015
Spine  3.80178 -3.51531 0.600442
Spine1  7.19167 -7.07104 1.25871
HEad  17.8921 39.6042 -4.33745
LeftShoulder1  0 -2.42657e-020 -4.95415e-022
LeftArm  -45.4207 7.93853 -69.5517
LeftForeArm  57.2426 -14.7054 -2.6097
LeftHand  0.234998 -10.8898 -2.83677
RightShoulder  0 2.42657e-020 1.07489e-018
RightArm  -75.2816 -26.0231 82.6888
RightForeArm  -25.4999 64.4699 21.5504
RightHand  1.86131 10.9725 19.5805
LeftUpLeg  -8.99343 12.9797 3.59058
LeftLeg  6.47639 -13.8173 -0.668656
LeftFoot  15.0979 0.489634 -3.68348
LeftToes  -18.0797 1.71452e-006 7.46813e-008
22
root  -58.5374 33.7047 8.87162 0.799287 47.1943 2.50984
RightUpLeg  7.82553 -17.8905 -5.65876
RightLeg  11.2447 0.379308 0.0516052
RightFoot  -6.18624 -0.0198028 0.0369083
RightToes  -25.4208 -0.113693 -0.218914
Spine  3.82803 -3.49554 0.584911
Spine1  7.24425 -7.03463 1.23443
HEad  18.303 40.8272 -4.54574
LeftShoulder1  0 -2.42657e-020 -4.95415e-022
LeftArm  -45.1577 7.79986 -69.5347
LeftForeArm  57.3679 -14.7823 -2.6239
LeftHand  0.232569 -10.8925 -2.81066
RightShoulder  0 2.42657e-020 1.07489e-018
RightArm  -75.3467 -25.9905 82.4667
RightForeArm  -25.3619 64.4837 21.5654
RightHand  1.85016 10.8519 19.6773
LeftUpLeg  -9.02789 12.7269 3.42953
LeftLeg  6.47412 -13.8377 -0.669079
LeftFoot  15.0615 0.488808 -3.68042
LeftToes  -17.9062 1.71452e-006 7.46813e-008
23
root  -58.494 33.7069 8.86938 0.962391 47.4724 2.63938
RightUpLeg  8.04931 -18.1604 -5.83409
RightLeg  10.9109 0.385678 0.0502011
RightFoot  -6.0435 -0.0190168 0.0366703
RightToes  -25.6783 -0.114588 -0.219975
Spine  3.84524 -3.45532 0.570464
Spine1  7.27926 -6.95785 1.21397
HEad  18.7328 41.7418 -4.33838
LeftShoulder1  0 -2.42657e-020 -4.95415e-022
LeftArm  -44.9342 7.63479 -69.5195
LeftForeArm  57.2102 -14.8763 -2.64191
LeftHand  0.224369 -10.7763 -2.75019
RightShoulder  0 2.42657e-020 1.07489e-018
RightArm  -75.4763 -25.9504 82.1646
RightForeArm  -25.5229 64.4139 21.4934
RightHand  1.97112 11.5263 19.7272
LeftUpLeg  -9.10946 12.4581 3.25243
LeftLeg  6.49154 -13.7946 -0.671202
LeftFoot  15.036 0.487278 -3.66273
LeftToes  -17.7315 1.71452e-006 7.46813e-008
24
root  -58.4597 33.7084 8.86896 1.10989 47.6453 2.74653
RightUpLeg  8.15429 -18.1846 -5.91075
RightLeg  10.7098 0.232629 0.029985
RightFoot  -5.97506 -0.019191 0.0521728
RightToes  -25.7867 -0.11538 -0.220914
Spine  3.85671 -3.3967 0.560102
Spine1  7.30449 -6.8439 1.20101
HEad  18.9366 42.5422 -4.59544
LeftShoulder1  0 -2.42657e-020 -4.95415e-022
LeftArm  -44.8214 7.47379 -69.4682
LeftForeArm  57.108 -14.9014 -2.64685
LeftHand  0.2397 -10.9014 -2.88341
RightShoulder  0 2.42657e-020 1.07489e-018
RightArm  -75.7145 -25.9053 81.9197
RightForeArm  -25.0601 64.3425 21.4247
RightHand  2.01685 11.7627 19.7744
LeftUpLeg  -9.11739 12.197 3.12483
LeftLeg  6.3955 -13.7074 -0.644229
LeftFoot  15.0568 0.485815 -3.64362
LeftToes  -17.6913 1.71452e-006 7.46813e-008
25
root  -58.4277 33.7086 8.86136 1.29052 47.8239 2.87107
RightUpLeg  8.20466 -18.3063 -6.02797
RightLeg  10.5705 0.18549 0.0237307
RightFoot  -5.93724 -0.0185978 0.0564182
RightToes  -25.9592 -0.116076 -0.22174
Spine  3.86753 -3.38069 0.552959
Spine1  7.32935 -6.80946 1.17948
HEad  19.063 43.1418 -4.78923
LeftShoulder1  0 -2.42657e-020 -4.95415e-022
LeftArm  -44.5823 7.461 -69.3755
LeftForeArm  56.9124 -15.0283 -2.67116
LeftHand  0.2418 -10.8927 -2.90745
RightShoulder  0 2.42657e-020 1.07489e-018
RightArm  -75.633 -25.7477 81.6236
RightForeArm  -25.3037 64.3141 21.3944
RightHand  1.98245 11.5763 19.7533
LeftUpLeg  -9.16859 12.2021 2.96194
LeftLeg  6.3025 -13.8645 -0.629118
LeftFoot  15.0777 0.488759 -3.6919
LeftToes  -17.569 1.71452e-006 7.46813e-008
26
root  -58.4025 33.7071 8.85753 1.42443 47.9968 2.95201
RightUpLeg  8.17527 -18.5092 -6.12975
RightLeg  10.624 0.201793 0.0258863
RightFoot  -5.97481 -0.0180215 0.0614117
RightToes  -25.9793 -0.116683 -0.222459
Spine  3.90151 -3.38555 0.555537
Spine1  7.39856 -6.81707 1.17536
HEad  19.003 43.4212 -5.26184
LeftShoulder1  0 -2.42657e-020 -4.95415e-022
LeftArm  -44.2601 7.43999 -69.2632
LeftForeArm  56.6715 -15.121 -2.68916
LeftHand  0.233993 -10.8264 -2.84069
RightShoulder  0 2.42657e-020 1.07489e-018
RightArm  -75.4826 -25.5529 81.3181
RightForeArm  -25.0413 64.2458 21.3279
RightHand  1.98992 11.6784 19.6567
LeftUpLeg  -9.21062 12.0059 2.8529
LeftLeg  6.23104 -13.8316 -0.61053
LeftFoot  15.0947 0.488592 -3.68642
LeftToes  -17.5445 1.71452e-006 7.46813e-008
27
root  -58.3792 33.7043 8.84774 1.58977 48.2187 3.05786
RightUpLeg  8.136 -18.7231 -6.2393
RightLeg  10.6564 0.154397 0.0202035
RightFoot  -5.96775 -0.0174215 0.0663496
RightToes  -26.2513 -0.117208 -0.22308
Spine  3.90018 -3.41803 0.555157
Spine1  7.39466 -6.87999 1.15527
HEad  19.0934 43.7175 -5.46225
LeftShoulder1  0 -2.42657e-020 -4.95415e-022
LeftArm  -44.1272 7.39715 -69.097
LeftForeArm  56.6749 -15.0409 -2.67403
LeftHand  0.253447 -10.8208 -3.04741
RightShoulder  0 2.42657e-020 1.07489e-018
RightArm  -75.2503 -25.3864 81.0939
RightForeArm  -25.0838 64.1284 21.2109
RightHand  2.02031 11.7314 19.8584
LeftUpLeg  -9.31767 12.0453 2.69857
LeftLeg  6.21671 -14.0629 -0.617035
LeftFoot  15.0775 0.493149 -3.74536
LeftToes  -17.2844 1.71452e-006 7.46813e-008
28
root  -58.3544 33.701 8.84703 1.73055 48.3717 3.13199
RightUpLeg  8.13277 -18.8158 -6.2972
RightLeg  10.6125 0.0774066 0.0107328
RightFoot  -5.977 -0.0166428 0.068652
RightToes  -26.2947 -0.117656 -0.223611
Spine  3.89906 -3.42361 0.551355
Spine1  7.37667 -6.88869 1.15882
HEad  19.3428 43.8048 -5.60854
LeftShoulder1  0 -2.42657e-020 -4.95415e-022
LeftArm  -44.1658 7.32197 -68.9684
LeftForeArm  56.7942 -14.9416 -2.65507
LeftHand  0.255968 -10.7575 -3.09005
RightShoulder  0 2.42657e-020 1.07489e-018
RightArm  -75.1443 -25.1746 80.7857
RightForeArm  -25.1636 64.1141 21.1963
RightHand  1.96659 11.6228 19.5249
LeftUpLeg  -9.39081 11.9452 2.59515
LeftLeg  6.18986 -14.0901 -0.611647
LeftFoot  15.0673 0.494482 -3.74984
LeftToes  -17.2881 1.71452e-006 7.46813e-008
